<svg width="234" height="63" viewBox="0 0 234 63" fill="none" xmlns="http://www.w3.org/2000/svg">
<path d="M134 0.999751L134.259 0.572152L134.14 0.49975L134 0.49975L134 0.999751ZM233.119 61.4855C233.387 61.4197 233.551 61.149 233.486 60.8808L232.414 56.5103C232.348 56.2421 232.077 56.0781 231.809 56.1439C231.541 56.2096 231.377 56.4804 231.442 56.7486L232.395 60.6334L228.51 61.5863C228.242 61.6521 228.078 61.9228 228.144 62.191C228.21 62.4592 228.48 62.6233 228.749 62.5575L233.119 61.4855ZM4.8403e-05 1.49967L134 1.49975L134 0.49975L4.64221e-05 0.499674L4.8403e-05 1.49967ZM133.741 1.42735L232.741 61.4275L233.259 60.5723L134.259 0.572152L133.741 1.42735Z" fill="#6DFF72"/>
</svg>
