<svg width="220" height="60" viewBox="0 0 220 60" fill="none" xmlns="http://www.w3.org/2000/svg">
<path d="M120 0.999877L120.25 0.566567L120.134 0.499876L120 0.499876L120 0.999877ZM219.13 58.4827C219.397 58.4109 219.555 58.1365 219.483 57.8699L218.313 53.5246C218.241 53.258 217.967 53.1 217.7 53.1718C217.434 53.2436 217.276 53.5179 217.347 53.7846L218.387 57.6471L214.525 58.6869C214.258 58.7587 214.1 59.0331 214.172 59.2997C214.244 59.5664 214.518 59.7244 214.785 59.6526L219.13 58.4827ZM1.15846e-07 1.49996L120 1.49988L120 0.499876L8.9167e-07 0.499959L1.15846e-07 1.49996ZM119.751 1.43319L218.751 58.4332L219.25 57.5666L120.25 0.566567L119.751 1.43319Z" fill="#FFC851"/>
</svg>
